<svg fill="white" height="512" width="491" xmlns="http://www.w3.org/2000/svg"><path d="m87.2891846 4.4218044c15.5893326 0 32.6396484-5.4230337 60.0527802-4.2576995 21.5602112.9165255 42.1534119 5.6598306 50.2758331 13.3761387 6.7088165 6.3733749 17.527359 18.1554737 17.527359 29.5197506 0 24.9072914 5.0737 40.5896645 5.0737 40.5896645 24.4460449 15.6823654 16.7610016 24.7137604 34.1322174 32.7484741 83.4855652 38.283432 91.5814819 62.6062775 113.9277954 100.0904083 22.8316956 25.5991669 26.9829102 61.5763702 42.4346924 84.4081268 0 0 29.5197144 25.8297119 45.2020874 50.7369995 15.6823425 24.9072876 34.5934448 29.0585022 34.5934448 29.0585022s-5.9961853-.9224854-9.6861572-.9224854-18.4498596-10.6086731-23.0623169-12.4536438c-4.6124573-1.8450012-7.3799438-.4612732.4612427 9.6861572 7.8411865 10.1473999 6.4574585 11.0699158 4.1512146 11.9924011-2.3062134.9224854-19.372345-11.5311584-19.372345-11.5311584s-5.5349426-2.3062134-6.457428 5.0737c-.9224854 7.3799438 29.0585022 34.1322327 39.6671753 42.4346619 10.6086426 8.3024292 10.1473999 11.0698853 4.1512146 12.9148865-5.9962158 1.8449707-17.0661316-1.8450012-29.9810181-2.3062439s-29.0585022-3.6899719-51.6595764-3.2286987c-22.6010437.4612427-16.6048584-2.7674866-24.4460449-5.9962158-7.841156-3.2287292-12.4536438-1.383728-21.2173157-3.6899719-8.7636719-2.3062134-20.0641174-5.5349121-20.0641174-5.5349121 7.1032104 5.7789917-.0184631 9.4242554 1.8448792 14.0679321 1.383667 18.6805725-7.149292 31.3647766-11.0698853 40.8203125-3.9205933 9.4555664-18.4498291 20.9866943-18.4498291 20.9866943s-8.0718079-2.9980774-10.8392944 10.8392944-8.5330505 6.9187012-8.7636719 2.0756226c-.2306213-4.8431091 4.8430786-6.9187012 7.149292-12.2230225 2.3062439-5.3043518-6.457428-8.3024292-7.6105347-12.914917-1.1531372-4.6124573-8.0718079-3.2286987-12.4536438-1.6143494-4.3818665 1.6143494-8.3024292 8.0718079-9.9168091 11.0699158-1.6143494 2.9981079-2.7674866-.691864-4.8430786-2.9981079-2.0756073-2.3062134-1.1531067-8.0718079 5.5349426-17.7579651 6.6880798-9.6861877.4612427-11.3005371-6.6880493-8.7636719-7.1493225 2.5368347-6.002655-4.5735168-6.002655-4.5735168 6.4338989-7.16922 16.4653625-18.6665649 24.8164978-19.6693726 23.7507935-2.8520508 35.0320435 3.0518188 40.6255188-2.9412231 7.7207031-8.2721558-1.0917358-9.4849548-1.0917358-9.4849548s-9.928833 11.0048828-32.5046997.2772217c-7.9522705-3.7787781-16.336731.7885132-19.4844971 1.6978455-10.6932068 3.0891113-13.3804932 10.3173523-13.0695343 14.2576904-8.6734161-2.7821655-.9683838-12.0626831-.410202-18.6202698.3740082-4.3939209-4.4185486-5.7277527-9.1643982-5.4004517-11.2918396 10.309967-12.3614349 10.1508484-14.1594086.6264038 2.4652863-2.5549927 5.3883972-2.3652039 6.3369904-5.7608643 1.2357788-4.4237061 8.3020172-11.9227295 15.9384155-12.6739197 14.4360046-1.4200745 49.9124756 18.2164001 55.4473877 9.9138794 2.7674255-4.1511841-45.3195801-26.2477112-52.5819702-37.822052-9.5698395-8.5065308-18.5936279-29.0901794-34.1322632-50.7371216-11.4229736-15.9134216-29.5523529-32.364563-37.8221893-45.2021179-29.9244385-46.4528198-47.6147766-87.9352875-38.9753571-132.1471405 0 0 4.2665863-15.5669403-2.9980316-28.3665161-9.3156128-16.4132156-27.7900848-35.2853317-38.859993-44.6255646-7.2556915-6.121994-9.1117859-12.4439659-12.7995758-16.2589302-10.0321045-10.3780365-28.0207062-9.3402328-28.0207062-9.3402328s-24.2154236 1.3837395-32.171917-7.2646255-12.7995806-5.5349541-17.29673-5.5349541-8.5068856-2.5731892-8.5068856-2.5731892c1.4720267-2.2852135 6.4181037-4.0898628 10.0600386-6.7527676 8.866189-12.4956245 7.6442537-17.8180637 30.8579674-19.9645309.0000009.0000009 30.7818384 2.6446952 46.3711786 2.6446952zm70.6567383 27.6400624c-3.0100403-7.8352737-.838913-6.7118835-10.0675354-17.6189251-9.2292175-10.9070396-8.3903046 18.4578342-8.3903046 18.4578342s13.8208313 1.6687431 18.45784-.8389091zm183.7376098 277.7040329c-7.5507812-5.0340881-15.9404907-15.101593-15.9404907-15.101593s-34.3983154-40.2713165-36.0761414-76.3480835c-1.6784363-36.0761566-17.618927-34.3983307-30.2037964-47.8220978-12.5848541-13.4237671-51.1777496-24.3302155-59.5680542-25.1691132-8.3897095-.8395233-31.8809967-42.7886505-36.9150696-52.0172653-5.0340576-9.2292252-3.3562469-28.5253601-3.3562469-28.5253601 1.6784363 6.7118835 20.9745636 15.9404984 21.8140869-3.3562469.838913-19.2967453-20.9921265-17.3404999-30.2037811-16.7794113-17.3949738 1.0580177-18.5661926 9.257061-18.5661926 9.257061-17.6897354-4.7114525-32.3488693-9.5566711-40.1629639-7.5792427-2.9422379 7.1119728 24.9445648 28.9363403 46.8827209 56.9278488 20.567215 26.2416687.8401184 58.7787781 10.0766144 79.7709045 0 0-1.5858307 18.5135193 5.9649658 22.7086792 7.5507965 4.1945496 5.8729858 17.6183167 8.3897095 19.2961273 2.5167236 1.6784363-.838913 12.5848694 3.3556366 14.2632904 4.1951599 1.6778259 6.7118835 18.4572296 10.9070435 18.4572296s24.3308105 15.1022034 31.0426941 24.3308105c2.7739716 3.8144531 12.1817474 6.4976196 23.9954834 10.1516724-9.9585724-12.9105225-21.0471954-29.9562378-19.6296387-40.3512268 2.5167236-18.4578247 2.5167236-18.4578247 2.5167236-18.4578247s10.7781219 35.6221924 26.2816162 61.7518921c14.9575195 5.0068054 31.8398438 12.0715637 44.0221863 24.6600647 25.1697388 26.0080261 55.3728943 65.4404297 81.3815308 85.5760803s41.9494934 14.26297 41.9494934 14.26297-41.1105652-52.0169373-43.6272888-70.474762c-2.5167542-18.4578552-16.779419-34.3983459-24.3308411-39.4324035z"/></svg>