<svg version="1.1" id="Layer_1" xmlns="http://www.w3.org/2000/svg" xmlns:xlink="http://www.w3.org/1999/xlink" x="0px" y="0px"
	 width="100%" viewBox="0 0 388 122" enable-background="new 0 0 388 122" xml:space="preserve">
<path fill="#FDFDFD" opacity="1.000000" stroke="none" 
	d="
M298.000000,123.000000 
	C198.666672,123.000000 99.833359,123.000000 1.000026,123.000000 
	C1.000018,82.333351 1.000018,41.666698 1.000009,1.000037 
	C130.333298,1.000025 259.666595,1.000025 388.999939,1.000013 
	C388.999939,41.666630 388.999939,82.333260 388.999969,122.999939 
	C358.833344,123.000000 328.666656,123.000000 298.000000,123.000000 
M69.695930,19.310198 
	C73.929359,20.653339 78.162796,21.996483 83.100258,23.562992 
	C83.100258,24.610872 83.084305,26.567223 83.103142,28.523237 
	C83.168777,35.337315 82.981834,42.167538 83.399323,48.960377 
	C83.764328,54.899334 86.575996,57.213108 91.935677,56.974861 
	C96.722794,56.762066 98.899216,54.438492 99.200760,48.743710 
	C99.429047,44.432346 99.350380,40.103825 99.373512,35.782753 
	C99.397278,31.344635 99.378784,26.906292 99.378784,22.073698 
	C102.248718,22.073698 104.387924,22.071741 106.527138,22.074123 
	C110.481194,22.078527 113.466606,20.811600 113.621735,16.270176 
	C113.769463,11.945254 111.671730,9.996675 106.594360,9.949762 
	C96.620911,9.857615 86.645706,9.866670 76.671898,9.933546 
	C70.045097,9.977980 69.058601,11.062420 68.392807,17.442566 
	C61.937141,7.125773 40.866779,7.894874 34.211132,13.226480 
	C28.180855,18.057125 27.572199,26.252298 33.660545,31.341990 
	C37.690304,34.710754 42.613949,36.997242 47.057209,39.891384 
	C48.625912,40.913162 49.956692,42.300213 51.396099,43.520496 
	C51.114647,44.071079 50.833191,44.621662 50.551739,45.172241 
	C48.004604,44.942390 45.416080,44.921337 42.921425,44.426788 
	C40.161697,43.879696 37.527920,42.554317 34.762054,42.233261 
	C33.025700,42.031704 30.065979,42.571659 29.587605,43.642349 
	C28.882015,45.221584 29.503099,47.747856 30.308392,49.532776 
	C30.923214,50.895515 32.599792,51.888325 33.976002,52.780453 
	C41.892673,57.912407 50.637699,58.109493 59.486889,56.491226 
	C64.970108,55.488499 68.864159,52.214851 69.908676,46.428978 
	C70.965813,40.573242 68.993515,35.940193 63.800064,32.855122 
	C59.657784,30.394478 55.306702,28.238174 51.396118,25.457615 
	C49.809677,24.329599 49.145344,21.904739 48.061424,20.069977 
	C50.188679,19.714039 52.459488,18.715277 54.409988,19.150846 
	C57.435085,19.826385 60.192425,21.617020 63.154137,22.682302 
	C66.598015,23.921011 69.160515,23.362003 69.695930,19.310198 
M177.857590,17.692884 
	C177.569077,17.093241 177.290131,16.488771 176.990570,15.894702 
	C174.198303,10.357419 170.417297,8.568456 164.235275,10.105951 
	C159.054504,11.394425 157.860977,15.385462 157.866577,20.080418 
	C157.878891,30.407087 157.898788,40.733841 157.868774,51.060421 
	C157.857712,54.862904 159.344437,57.018528 163.456314,57.024853 
	C167.498032,57.031067 169.184021,55.044102 169.154572,51.170303 
	C169.113647,45.785576 169.144272,40.400299 169.144272,35.015259 
	C172.551453,39.259621 174.747635,43.922215 177.745651,47.994511 
	C179.416245,50.263752 182.388336,52.818485 184.835068,52.881840 
	C186.816620,52.933144 189.377045,49.761406 190.813782,47.474609 
	C193.301590,43.514854 195.118164,39.133392 197.216263,34.928810 
	C197.953796,39.882236 197.878708,44.529610 197.973190,49.173542 
	C198.086044,54.720272 200.279129,56.946442 205.431198,56.992622 
	C211.042877,57.042931 213.930954,54.437374 213.975769,48.998737 
	C214.052628,39.671635 214.038376,30.343206 213.985062,21.015776 
	C213.937622,12.715139 209.961227,9.265002 201.732605,9.943299 
	C197.252014,10.312642 195.027206,13.192263 193.270844,16.751680 
	C190.731125,21.898727 188.249512,27.074446 185.147614,33.464718 
	C182.414276,27.599768 180.269806,22.998371 177.857590,17.692884 
M258.791687,41.431187 
	C256.819946,38.945656 254.848236,36.460121 252.775894,33.847767 
	C258.623474,29.759188 259.330139,23.203943 258.894806,16.355789 
	C258.574036,11.309650 256.513702,9.818289 250.818405,9.926398 
	C245.304825,10.031058 243.247681,11.801877 242.836823,16.658485 
	C242.585052,19.634418 242.584198,22.718002 241.708786,25.514771 
	C241.326569,26.735901 238.975250,28.130762 237.630432,28.024599 
	C236.433441,27.930103 234.730789,26.019253 234.427353,24.649519 
	C233.899857,22.268377 234.213898,19.684422 234.291534,17.189119 
	C234.441467,12.370540 231.874619,10.266208 227.342606,9.944343 
	C221.646942,9.539833 218.699387,11.118015 218.532227,16.205381 
	C218.161072,27.501591 218.352036,38.823154 218.582565,50.128902 
	C218.676468,54.734272 221.651901,56.994476 226.163574,56.952927 
	C230.740402,56.910778 233.807495,54.833019 234.306580,49.973976 
	C234.660019,46.532753 234.877472,43.077560 235.152008,39.673504 
	C241.550797,39.021198 242.746490,40.296604 243.033768,47.811935 
	C243.310242,55.045319 245.270416,57.106052 251.766708,56.992943 
	C257.524597,56.892689 259.097443,54.988335 259.243835,47.738312 
	C259.280670,45.915066 259.062683,44.086674 258.791687,41.431187 
M147.138290,9.914315 
	C139.311935,9.918351 131.485336,9.961137 123.659309,9.911969 
	C118.922722,9.882212 116.296463,12.504120 116.186913,16.857517 
	C115.910553,27.840155 115.942551,38.837303 116.168381,49.822117 
	C116.246208,53.607727 118.290710,56.768604 122.513115,56.875164 
	C131.332413,57.097725 140.164825,57.074970 148.984558,56.857361 
	C152.089996,56.780746 154.197998,55.024544 154.245331,51.437656 
	C154.289017,48.126022 153.241425,45.869968 149.616867,45.658550 
	C144.181046,45.341484 138.740723,45.101624 133.083878,44.817978 
	C133.083878,42.841156 133.083878,41.131866 133.083878,38.812687 
	C137.529999,38.812687 141.765656,39.358032 145.741394,38.578213 
	C147.673798,38.199184 150.202011,35.524292 150.532944,33.563431 
	C151.029892,30.618839 148.522049,28.933102 145.352859,28.934345 
	C142.855576,28.935326 140.358322,28.869465 137.860931,28.855822 
	C131.850525,28.822989 131.469955,28.292463 133.267044,21.463694 
	C138.053360,21.463694 143.027664,21.609919 147.988312,21.412529 
	C151.321808,21.279886 154.249863,20.396885 154.259705,15.997075 
	C154.269379,11.667865 151.943481,10.090025 147.138290,9.914315 
M370.889801,31.998663 
	C369.463776,23.519537 364.168762,21.529617 356.206360,26.480484 
	C343.040344,19.841627 334.002441,25.449472 333.925690,40.310539 
	C333.919678,41.473400 333.920746,42.639511 333.996124,43.799068 
	C334.677887,54.282650 342.854614,59.666550 352.930023,56.539551 
	C354.874023,55.936207 357.322571,56.004169 359.287750,56.595421 
	C366.281464,58.699558 370.741516,55.709698 370.879944,48.359791 
	C370.976929,43.209698 370.898285,38.056301 370.889801,31.998663 
M277.091980,23.931273 
	C268.855530,23.351311 264.498840,25.393890 262.650360,32.116718 
	C261.458008,36.453243 261.004028,41.372444 261.732544,45.780384 
	C263.376007,55.724155 270.693207,59.468666 280.264557,56.404240 
	C282.198273,55.785130 284.669006,55.872036 286.628693,56.481098 
	C293.450562,58.601295 297.869568,55.748222 297.980835,48.674431 
	C298.069672,43.023487 298.129547,37.365356 297.946472,31.718708 
	C297.752563,25.738020 293.077759,21.906607 287.937225,24.463213 
	C283.983093,26.429792 281.218719,25.448830 277.091980,23.931273 
M301.180237,40.198101 
	C306.262909,42.739620 311.345581,45.281139 317.727448,48.472294 
	C314.707886,48.472294 312.830475,48.765682 311.093750,48.396732 
	C309.004395,47.952873 307.081635,46.562099 304.997955,46.307209 
	C303.410889,46.113075 300.989441,46.556580 300.226166,47.630825 
	C299.527679,48.613911 300.202637,51.001247 300.929199,52.437458 
	C301.547852,53.660271 302.953705,54.765388 304.265625,55.311085 
	C312.384033,58.687923 320.602966,58.735893 328.214172,54.229340 
	C335.131012,50.133915 334.676544,41.613777 327.595490,37.715839 
	C324.851624,36.205406 321.773071,35.311680 318.883331,34.053474 
	C317.571289,33.482197 316.347778,32.707584 315.084106,32.025211 
	C315.383301,31.378731 315.682495,30.732252 315.981720,30.085773 
	C319.062164,31.305248 322.076447,32.762444 325.250397,33.646191 
	C326.893097,34.103584 328.818909,33.544346 330.616791,33.444416 
	C330.227051,31.625025 330.077881,29.701315 329.352081,28.027639 
	C328.953796,27.109146 327.660217,26.457083 326.638641,25.950516 
	C320.174927,22.745441 313.460358,22.633202 306.869385,25.210342 
	C299.986359,27.901670 298.268951,32.391220 301.180237,40.198101 
M164.184387,86.361099 
	C165.157883,86.925079 166.484818,87.255531 167.040070,88.095863 
	C168.865540,90.858543 170.700592,93.682198 171.997421,96.711288 
	C174.012772,101.418709 177.137665,103.215363 182.266174,101.572449 
	C182.266174,93.245628 182.266174,84.805969 182.266174,76.178879 
	C180.545166,76.178879 178.984619,76.178879 177.023163,76.178879 
	C177.023163,81.770760 177.023163,87.123863 177.023163,93.835564 
	C174.106735,88.829201 171.530716,85.184151 169.768356,81.180901 
	C167.669632,76.413574 164.528870,74.855644 159.434280,76.346329 
	C159.434280,84.678513 159.434280,93.083839 159.434280,101.752762 
	C160.952164,101.752762 162.323608,101.752762 164.029297,101.752762 
	C164.029297,96.800392 164.029297,92.002800 164.184387,86.361099 
M281.381531,99.372551 
	C283.290436,103.774086 286.863220,101.463730 289.888245,101.968056 
	C289.888245,93.055534 289.888245,84.638596 289.888245,75.904640 
	C288.081940,76.007156 286.553833,76.093887 284.661926,76.201263 
	C284.661926,82.036537 284.661926,87.375961 284.661926,93.677589 
	C281.873688,88.919601 279.243774,85.234146 277.458710,81.176964 
	C275.356140,76.398178 272.258087,74.797821 267.189880,76.354492 
	C267.189880,84.722092 267.189880,93.148872 267.189880,101.643051 
	C268.897766,101.643051 270.393799,101.643051 272.297119,101.643051 
	C272.297119,96.245796 272.297119,91.206757 272.297119,86.167709 
	C272.681854,86.017647 273.066620,85.867584 273.451355,85.717522 
	C275.967499,90.043404 278.483643,94.369293 281.381531,99.372551 
M118.037682,76.804886 
	C118.037682,85.086975 118.037682,93.369057 118.037682,101.809570 
	C119.830940,101.809570 121.230965,101.809570 123.203445,101.809570 
	C123.203445,96.469742 123.203445,91.301285 123.203445,86.132820 
	C123.622917,86.000465 124.042381,85.868103 124.461853,85.735748 
	C126.655624,89.492805 129.212570,93.090546 130.948715,97.048340 
	C132.993057,101.708710 136.077026,103.042740 140.810699,101.629448 
	C140.810699,93.118523 140.810699,84.581062 140.810699,75.887108 
	C139.047592,75.966698 137.627365,76.030807 135.883209,76.109543 
	C135.883209,81.858658 135.883209,87.238274 135.883209,94.040596 
	C132.960342,89.038101 130.364090,85.417809 128.635162,81.422203 
	C126.583694,76.681198 123.401115,75.064812 118.037682,76.804886 
M195.257187,76.505379 
	C187.977341,80.024437 185.418854,88.620712 188.775772,96.384018 
	C190.971451,101.461800 199.944107,104.687622 208.659409,100.260468 
	C208.659409,95.901726 208.659409,91.645416 208.659409,87.338211 
	C205.106705,87.338211 201.859848,87.338211 198.484055,87.338211 
	C198.484055,88.991508 198.484055,90.378983 198.484055,91.751144 
	C200.164581,92.005234 201.564545,92.216896 203.161804,92.458389 
	C203.021164,94.180664 202.905411,95.597878 202.794724,96.953247 
	C198.883179,97.642593 195.232117,97.334000 194.312164,93.347626 
	C191.812668,82.516701 196.536728,78.696930 207.114243,81.665886 
	C207.765945,80.070892 208.302277,78.758247 209.359619,76.170471 
	C204.364502,76.170471 200.159988,76.170471 195.257187,76.505379 
M105.189003,96.320648 
	C107.330620,99.997833 109.302856,103.998589 114.989441,101.313004 
	C112.660683,97.797905 110.389633,94.369904 107.969353,90.716652 
	C112.212997,88.252701 113.293755,84.513069 111.747330,80.416801 
	C110.210167,76.345070 106.235092,76.064140 102.498253,75.946808 
	C99.880898,75.864624 97.258888,75.930962 94.428543,75.930962 
	C94.428543,84.794487 94.428543,93.198608 94.428543,101.751709 
	C96.391159,101.751709 98.113617,101.751709 100.245224,101.751709 
	C100.245224,98.425102 100.245224,95.356796 100.245224,92.288483 
	C100.618912,92.084305 100.992599,91.880135 101.366287,91.675957 
	C102.526527,92.998932 103.686768,94.321907 105.189003,96.320648 
M348.188995,96.320671 
	C350.330627,99.997826 352.302856,103.998604 357.989410,101.313011 
	C355.660645,97.797935 353.389587,94.369949 351.144257,90.980820 
	C354.993347,87.314415 356.319275,83.671219 354.809357,80.395866 
	C352.978607,76.424583 349.235107,76.064140 345.498260,75.946808 
	C342.880890,75.864624 340.258881,75.930962 337.428528,75.930962 
	C337.428528,84.794487 337.428528,93.198608 337.428528,101.751709 
	C339.391144,101.751709 341.113617,101.751709 343.245239,101.751709 
	C343.245239,98.427162 343.245239,95.353790 343.245239,92.280418 
	C343.618927,92.078926 343.992645,91.877434 344.366333,91.675949 
	C345.526550,92.998940 346.686768,94.321930 348.188995,96.320671 
M85.980400,101.954895 
	C87.695473,101.954895 89.410545,101.954895 91.646088,101.954895 
	C88.437134,92.847107 85.480637,84.455864 82.103058,74.869499 
	C79.419174,76.012390 75.612564,76.423447 74.846123,78.169212 
	C71.528847,85.725197 69.100212,93.671318 66.235184,101.796463 
	C68.579170,101.796463 70.504379,101.796463 72.515732,101.796463 
	C73.194511,99.857750 73.832695,98.035011 74.469780,96.215385 
	C77.570244,96.215385 80.500931,96.215385 83.457001,96.215385 
	C84.084587,98.165283 84.638832,99.887291 85.980400,101.954895 
M63.915230,87.549858 
	C61.162346,86.762192 58.409466,85.974525 55.433460,85.123016 
	C55.433460,84.075325 55.433460,82.554443 55.433460,80.661736 
	C58.534161,80.661736 61.297909,80.661736 64.127800,80.661736 
	C64.127800,78.888329 64.127800,77.495888 64.127800,76.224808 
	C59.036655,76.224808 54.278969,76.224808 49.494949,76.224808 
	C49.494949,84.931450 49.494949,93.331909 49.494949,101.778877 
	C54.561432,101.778877 59.320068,101.778877 64.167061,101.778877 
	C64.167061,100.127037 64.167061,98.718544 64.167061,96.813042 
	C60.978676,96.813042 58.077374,96.813042 55.020294,96.813042 
	C55.125824,94.556953 55.207497,92.810928 55.295094,90.938232 
	C57.785122,90.938232 59.825649,91.182419 61.754749,90.825066 
	C62.594990,90.669426 63.206570,89.279396 63.915230,87.549858 
M327.392334,80.850967 
	C328.981567,80.776039 330.570770,80.701118 332.505035,80.609932 
	C332.358276,78.764526 332.249115,77.392204 332.160828,76.281967 
	C326.915009,76.281967 322.170807,76.281967 317.547485,76.281967 
	C317.547485,85.044090 317.547485,93.442421 317.547485,101.722610 
	C322.669922,101.722610 327.428833,101.722610 332.492310,101.722610 
	C332.365234,99.988922 332.261749,98.577484 332.136810,96.873032 
	C328.999786,96.873032 326.216949,96.873032 323.318481,96.873032 
	C323.318481,94.811249 323.318481,93.072418 323.318481,90.801468 
	C326.269806,90.801468 329.003448,90.801468 332.047791,90.801468 
	C331.856873,88.853241 331.721100,87.467552 331.556030,85.783264 
	C328.548706,85.783264 325.941925,85.783264 323.352905,85.783264 
	C322.864868,82.856644 322.394104,80.279846 327.392334,80.850967 
M252.949158,94.473656 
	C252.701920,87.069473 259.241150,93.337631 261.289307,89.841324 
	C261.289307,88.986084 261.289307,87.608070 261.289307,85.860794 
	C258.377716,85.860794 255.789703,85.860794 252.898407,85.860794 
	C253.008545,83.929497 253.095627,82.402618 253.193405,80.687889 
	C256.344727,80.687889 258.970795,80.687889 261.865997,80.687889 
	C261.865997,79.086899 261.865997,77.705055 261.865997,76.250229 
	C256.915009,76.250229 252.045853,76.250229 247.268707,76.250229 
	C247.268707,84.959457 247.268707,93.348778 247.268707,101.805298 
	C252.301086,101.805298 257.053528,101.805298 261.917999,101.805298 
	C261.917999,100.204918 261.917999,98.810432 261.917999,97.905525 
	C258.704987,97.011230 255.829727,96.210938 252.949158,94.473656 
M229.271240,91.888985 
	C228.480194,81.708771 231.165726,79.364944 241.180405,81.884605 
	C241.710175,80.458824 242.253677,78.996071 242.862411,77.357742 
	C237.023712,75.253067 231.526321,74.214386 226.696228,78.681198 
	C222.682632,82.392929 221.723938,91.027893 224.354614,96.479424 
	C226.525482,100.978149 230.839569,102.714401 237.552750,102.116219 
	C241.387344,101.774551 242.962677,100.230156 241.547928,96.371353 
	C236.988388,96.712608 231.714279,99.597595 229.271240,91.888985 
M306.672241,98.197136 
	C306.672241,92.471413 306.672241,86.745689 306.672241,81.082397 
	C309.331818,80.935829 311.268066,80.829124 313.334106,80.715271 
	C313.334106,78.990135 313.334106,77.610863 313.334106,76.080482 
	C306.792664,76.080482 300.545837,76.080482 294.211823,76.080482 
	C294.211823,77.755196 294.211823,79.255219 294.211823,80.761665 
	C296.520386,80.898277 298.459015,81.012993 300.920105,81.158630 
	C300.920105,88.219231 300.920105,95.087761 300.920105,102.210693 
	C303.436523,101.436272 306.920441,103.763489 306.672241,98.197136 
M34.943813,94.338799 
	C34.943813,88.246201 34.943813,82.153595 34.943813,76.092201 
	C32.679710,76.092201 31.056658,76.092201 29.323956,76.092201 
	C29.323956,84.776741 29.323956,93.305183 29.323956,101.771088 
	C34.757877,101.771088 39.860977,101.771088 44.914494,101.771088 
	C44.914494,100.135765 44.914494,98.738144 44.914494,97.042305 
	C42.660385,97.042305 40.659092,97.254272 38.731468,96.968788 
	C37.417114,96.774132 36.205730,95.884232 34.943813,94.338799 
M147.192169,100.112694 
	C148.889771,100.967926 150.587372,101.823158 152.780960,102.928253 
	C152.780960,93.070145 152.780960,84.536201 152.780960,75.857994 
	C150.842514,75.956642 149.227432,76.038834 147.185486,76.142754 
	C147.185486,83.977768 147.185486,91.578125 147.192169,100.112694 
z"/>
<path fill="#56BAF9" opacity="1.000000" stroke="none" 
	d="
M177.991455,18.044930 
	C180.269806,22.998371 182.414276,27.599768 185.147614,33.464718 
	C188.249512,27.074446 190.731125,21.898727 193.270844,16.751680 
	C195.027206,13.192263 197.252014,10.312642 201.732605,9.943299 
	C209.961227,9.265002 213.937622,12.715139 213.985062,21.015776 
	C214.038376,30.343206 214.052628,39.671635 213.975769,48.998737 
	C213.930954,54.437374 211.042877,57.042931 205.431198,56.992622 
	C200.279129,56.946442 198.086044,54.720272 197.973190,49.173542 
	C197.878708,44.529610 197.953796,39.882236 197.216263,34.928810 
	C195.118164,39.133392 193.301590,43.514854 190.813782,47.474609 
	C189.377045,49.761406 186.816620,52.933144 184.835068,52.881840 
	C182.388336,52.818485 179.416245,50.263752 177.745651,47.994511 
	C174.747635,43.922215 172.551453,39.259621 169.144272,35.015259 
	C169.144272,40.400299 169.113647,45.785576 169.154572,51.170303 
	C169.184021,55.044102 167.498032,57.031067 163.456314,57.024853 
	C159.344437,57.018528 157.857712,54.862904 157.868774,51.060421 
	C157.898788,40.733841 157.878891,30.407087 157.866577,20.080418 
	C157.860977,15.385462 159.054504,11.394425 164.235275,10.105951 
	C170.417297,8.568456 174.198303,10.357419 176.990570,15.894702 
	C177.290131,16.488771 177.569077,17.093241 177.991455,18.044930 
z"/>
<path fill="#4B23A2" opacity="1.000000" stroke="none" 
	d="
M258.876740,41.845917 
	C259.062683,44.086674 259.280670,45.915066 259.243835,47.738312 
	C259.097443,54.988335 257.524597,56.892689 251.766708,56.992943 
	C245.270416,57.106052 243.310242,55.045319 243.033768,47.811935 
	C242.746490,40.296604 241.550797,39.021198 235.152008,39.673504 
	C234.877472,43.077560 234.660019,46.532753 234.306580,49.973976 
	C233.807495,54.833019 230.740402,56.910778 226.163574,56.952927 
	C221.651901,56.994476 218.676468,54.734272 218.582565,50.128902 
	C218.352036,38.823154 218.161072,27.501591 218.532227,16.205381 
	C218.699387,11.118015 221.646942,9.539833 227.342606,9.944343 
	C231.874619,10.266208 234.441467,12.370540 234.291534,17.189119 
	C234.213898,19.684422 233.899857,22.268377 234.427353,24.649519 
	C234.730789,26.019253 236.433441,27.930103 237.630432,28.024599 
	C238.975250,28.130762 241.326569,26.735901 241.708786,25.514771 
	C242.584198,22.718002 242.585052,19.634418 242.836823,16.658485 
	C243.247681,11.801877 245.304825,10.031058 250.818405,9.926398 
	C256.513702,9.818289 258.574036,11.309650 258.894806,16.355789 
	C259.330139,23.203943 258.623474,29.759188 252.775894,33.847767 
	C254.848236,36.460121 256.819946,38.945656 258.876740,41.845917 
z"/>
<path fill="#8AD066" opacity="1.000000" stroke="none" 
	d="
M147.592514,9.934835 
	C151.943481,10.090025 154.269379,11.667865 154.259705,15.997075 
	C154.249863,20.396885 151.321808,21.279886 147.988312,21.412529 
	C143.027664,21.609919 138.053360,21.463694 133.267044,21.463694 
	C131.469955,28.292463 131.850525,28.822989 137.860931,28.855822 
	C140.358322,28.869465 142.855576,28.935326 145.352859,28.934345 
	C148.522049,28.933102 151.029892,30.618839 150.532944,33.563431 
	C150.202011,35.524292 147.673798,38.199184 145.741394,38.578213 
	C141.765656,39.358032 137.529999,38.812687 133.083878,38.812687 
	C133.083878,41.131866 133.083878,42.841156 133.083878,44.817978 
	C138.740723,45.101624 144.181046,45.341484 149.616867,45.658550 
	C153.241425,45.869968 154.289017,48.126022 154.245331,51.437656 
	C154.197998,55.024544 152.089996,56.780746 148.984558,56.857361 
	C140.164825,57.074970 131.332413,57.097725 122.513115,56.875164 
	C118.290710,56.768604 116.246208,53.607727 116.168381,49.822117 
	C115.942551,38.837303 115.910553,27.840155 116.186913,16.857517 
	C116.296463,12.504120 118.922722,9.882212 123.659309,9.911969 
	C131.485336,9.961137 139.311935,9.918351 147.592514,9.934835 
z"/>
<path fill="#5427B6" opacity="1.000000" stroke="none" 
	d="
M69.095604,18.895218 
	C69.160515,23.362003 66.598015,23.921011 63.154137,22.682302 
	C60.192425,21.617020 57.435085,19.826385 54.409988,19.150846 
	C52.459488,18.715277 50.188679,19.714039 48.061424,20.069977 
	C49.145344,21.904739 49.809677,24.329599 51.396118,25.457615 
	C55.306702,28.238174 59.657784,30.394478 63.800064,32.855122 
	C68.993515,35.940193 70.965813,40.573242 69.908676,46.428978 
	C68.864159,52.214851 64.970108,55.488499 59.486889,56.491226 
	C50.637699,58.109493 41.892673,57.912407 33.976002,52.780453 
	C32.599792,51.888325 30.923214,50.895515 30.308392,49.532776 
	C29.503099,47.747856 28.882015,45.221584 29.587605,43.642349 
	C30.065979,42.571659 33.025700,42.031704 34.762054,42.233261 
	C37.527920,42.554317 40.161697,43.879696 42.921425,44.426788 
	C45.416080,44.921337 48.004604,44.942390 50.551739,45.172241 
	C50.833191,44.621662 51.114647,44.071079 51.396099,43.520496 
	C49.956692,42.300213 48.625912,40.913162 47.057209,39.891384 
	C42.613949,36.997242 37.690304,34.710754 33.660545,31.341990 
	C27.572199,26.252298 28.180855,18.057125 34.211132,13.226480 
	C40.866779,7.894874 61.937141,7.125773 68.671967,17.915165 
	C68.999290,18.556917 69.047447,18.726068 69.095604,18.895218 
z"/>
<path fill="#EA365F" opacity="1.000000" stroke="none" 
	d="
M69.395767,19.102707 
	C69.047447,18.726068 68.999290,18.556917 68.916412,18.125648 
	C69.058601,11.062420 70.045097,9.977980 76.671898,9.933546 
	C86.645706,9.866670 96.620911,9.857615 106.594360,9.949762 
	C111.671730,9.996675 113.769463,11.945254 113.621735,16.270176 
	C113.466606,20.811600 110.481194,22.078527 106.527138,22.074123 
	C104.387924,22.071741 102.248718,22.073698 99.378784,22.073698 
	C99.378784,26.906292 99.397278,31.344635 99.373512,35.782753 
	C99.350380,40.103825 99.429047,44.432346 99.200760,48.743710 
	C98.899216,54.438492 96.722794,56.762066 91.935677,56.974861 
	C86.575996,57.213108 83.764328,54.899334 83.399323,48.960377 
	C82.981834,42.167538 83.168777,35.337315 83.103142,28.523237 
	C83.084305,26.567223 83.100258,24.610872 83.100258,23.562992 
	C78.162796,21.996483 73.929359,20.653339 69.395767,19.102707 
z"/>
<path fill="#58BAF9" opacity="1.000000" stroke="none" 
	d="
M370.893921,32.451519 
	C370.898285,38.056301 370.976929,43.209698 370.879944,48.359791 
	C370.741516,55.709698 366.281464,58.699558 359.287750,56.595421 
	C357.322571,56.004169 354.874023,55.936207 352.930023,56.539551 
	C342.854614,59.666550 334.677887,54.282650 333.996124,43.799068 
	C333.920746,42.639511 333.919678,41.473400 333.925690,40.310539 
	C334.002441,25.449472 343.040344,19.841627 356.206360,26.480484 
	C364.168762,21.529617 369.463776,23.519537 370.893921,32.451519 
M355.701416,41.369373 
	C355.628479,39.383911 355.770996,37.355534 355.387909,35.431858 
	C355.207794,34.527531 354.141266,33.487946 353.237793,33.152710 
	C352.666992,32.940914 351.424896,33.728916 350.881805,34.393608 
	C348.658295,37.114876 348.559357,44.155453 350.683197,46.703266 
	C352.394043,48.755611 354.164734,48.633739 355.252472,46.155148 
	C355.756531,45.006580 355.572571,43.556065 355.701416,41.369373 
z"/>
<path fill="#EB4B7D" opacity="1.000000" stroke="none" 
	d="
M277.521179,24.000879 
	C281.218719,25.448830 283.983093,26.429792 287.937225,24.463213 
	C293.077759,21.906607 297.752563,25.738020 297.946472,31.718708 
	C298.129547,37.365356 298.069672,43.023487 297.980835,48.674431 
	C297.869568,55.748222 293.450562,58.601295 286.628693,56.481098 
	C284.669006,55.872036 282.198273,55.785130 280.264557,56.404240 
	C270.693207,59.468666 263.376007,55.724155 261.732544,45.780384 
	C261.004028,41.372444 261.458008,36.453243 262.650360,32.116718 
	C264.498840,25.393890 268.855530,23.351311 277.521179,24.000879 
M276.589386,42.871819 
	C276.741364,43.518654 276.688171,44.362652 277.084290,44.774841 
	C278.208923,45.945103 279.517090,46.938988 280.752991,48.002312 
	C281.469025,46.677231 282.630249,45.408054 282.805176,44.015022 
	C283.133698,41.398972 283.087067,38.689522 282.793365,36.064007 
	C282.672760,34.985928 281.386292,33.121323 280.843658,33.194637 
	C279.643280,33.356800 277.964508,34.294262 277.586121,35.322304 
	C276.808075,37.436058 276.755188,39.816730 276.589386,42.871819 
z"/>
<path fill="#8AD066" opacity="1.000000" stroke="none" 
	d="
M300.976746,39.883965 
	C298.268951,32.391220 299.986359,27.901670 306.869385,25.210342 
	C313.460358,22.633202 320.174927,22.745441 326.638641,25.950516 
	C327.660217,26.457083 328.953796,27.109146 329.352081,28.027639 
	C330.077881,29.701315 330.227051,31.625025 330.616791,33.444420 
	C328.818909,33.544346 326.893097,34.103584 325.250397,33.646191 
	C322.076447,32.762444 319.062164,31.305248 315.981720,30.085773 
	C315.682495,30.732252 315.383301,31.378731 315.084106,32.025211 
	C316.347778,32.707584 317.571289,33.482197 318.883331,34.053474 
	C321.773071,35.311680 324.851624,36.205406 327.595490,37.715839 
	C334.676544,41.613777 335.131012,50.133915 328.214172,54.229340 
	C320.602966,58.735893 312.384033,58.687923 304.265625,55.311085 
	C302.953705,54.765388 301.547852,53.660271 300.929199,52.437458 
	C300.202637,51.001247 299.527679,48.613911 300.226166,47.630825 
	C300.989441,46.556580 303.410889,46.113075 304.997955,46.307209 
	C307.081635,46.562099 309.004395,47.952873 311.093750,48.396732 
	C312.830475,48.765682 314.707886,48.472294 317.727448,48.472294 
	C311.345581,45.281139 306.262909,42.739620 300.976746,39.883965 
z"/>
<path fill="#0B0B0B" opacity="1.000000" stroke="none" 
	d="
M164.106842,86.783157 
	C164.029297,92.002800 164.029297,96.800392 164.029297,101.752762 
	C162.323608,101.752762 160.952164,101.752762 159.434280,101.752762 
	C159.434280,93.083839 159.434280,84.678513 159.434280,76.346329 
	C164.528870,74.855644 167.669632,76.413574 169.768356,81.180901 
	C171.530716,85.184151 174.106735,88.829201 177.023163,93.835564 
	C177.023163,87.123863 177.023163,81.770760 177.023163,76.178879 
	C178.984619,76.178879 180.545166,76.178879 182.266174,76.178879 
	C182.266174,84.805969 182.266174,93.245628 182.266174,101.572449 
	C177.137665,103.215363 174.012772,101.418709 171.997421,96.711288 
	C170.700592,93.682198 168.865540,90.858543 167.040070,88.095863 
	C166.484818,87.255531 165.157883,86.925079 164.106842,86.783157 
z"/>
<path fill="#030303" opacity="1.000000" stroke="none" 
	d="
M281.190674,99.033867 
	C278.483643,94.369293 275.967499,90.043404 273.451355,85.717522 
	C273.066620,85.867584 272.681854,86.017647 272.297119,86.167709 
	C272.297119,91.206757 272.297119,96.245796 272.297119,101.643051 
	C270.393799,101.643051 268.897766,101.643051 267.189880,101.643051 
	C267.189880,93.148872 267.189880,84.722092 267.189880,76.354492 
	C272.258087,74.797821 275.356140,76.398178 277.458710,81.176964 
	C279.243774,85.234146 281.873688,88.919601 284.661926,93.677589 
	C284.661926,87.375961 284.661926,82.036537 284.661926,76.201263 
	C286.553833,76.093887 288.081940,76.007156 289.888245,75.904640 
	C289.888245,84.638596 289.888245,93.055534 289.888245,101.968056 
	C286.863220,101.463730 283.290436,103.774086 281.190674,99.033867 
z"/>
<path fill="#030303" opacity="1.000000" stroke="none" 
	d="
M118.300392,76.419388 
	C123.401115,75.064812 126.583694,76.681198 128.635162,81.422203 
	C130.364090,85.417809 132.960342,89.038101 135.883209,94.040596 
	C135.883209,87.238274 135.883209,81.858658 135.883209,76.109543 
	C137.627365,76.030807 139.047592,75.966698 140.810699,75.887108 
	C140.810699,84.581062 140.810699,93.118523 140.810699,101.629448 
	C136.077026,103.042740 132.993057,101.708710 130.948715,97.048340 
	C129.212570,93.090546 126.655624,89.492805 124.461853,85.735748 
	C124.042381,85.868103 123.622917,86.000465 123.203445,86.132820 
	C123.203445,91.301285 123.203445,96.469742 123.203445,101.809570 
	C121.230965,101.809570 119.830940,101.809570 118.037682,101.809570 
	C118.037682,93.369057 118.037682,85.086975 118.300392,76.419388 
z"/>
<path fill="#0C0C0C" opacity="1.000000" stroke="none" 
	d="
M195.606339,76.337921 
	C200.159988,76.170471 204.364502,76.170471 209.359619,76.170471 
	C208.302277,78.758247 207.765945,80.070892 207.114243,81.665886 
	C196.536728,78.696930 191.812668,82.516701 194.312164,93.347626 
	C195.232117,97.334000 198.883179,97.642593 202.794724,96.953247 
	C202.905411,95.597878 203.021164,94.180664 203.161804,92.458389 
	C201.564545,92.216896 200.164581,92.005234 198.484055,91.751144 
	C198.484055,90.378983 198.484055,88.991508 198.484055,87.338211 
	C201.859848,87.338211 205.106705,87.338211 208.659409,87.338211 
	C208.659409,91.645416 208.659409,95.901726 208.659409,100.260468 
	C199.944107,104.687622 190.971451,101.461800 188.775772,96.384018 
	C185.418854,88.620712 187.977341,80.024437 195.606339,76.337921 
z"/>
<path fill="#0B0B0B" opacity="1.000000" stroke="none" 
	d="
M105.018005,95.982765 
	C103.686768,94.321907 102.526527,92.998932 101.366287,91.675957 
	C100.992599,91.880135 100.618912,92.084305 100.245224,92.288483 
	C100.245224,95.356796 100.245224,98.425102 100.245224,101.751709 
	C98.113617,101.751709 96.391159,101.751709 94.428543,101.751709 
	C94.428543,93.198608 94.428543,84.794487 94.428543,75.930962 
	C97.258888,75.930962 99.880898,75.864624 102.498253,75.946808 
	C106.235092,76.064140 110.210167,76.345070 111.747330,80.416801 
	C113.293755,84.513069 112.212997,88.252701 107.969353,90.716652 
	C110.389633,94.369904 112.660683,97.797905 114.989441,101.313004 
	C109.302856,103.998589 107.330620,99.997833 105.018005,95.982765 
M104.927505,81.447906 
	C103.407372,81.257797 101.887238,81.067688 100.268021,80.865189 
	C100.268021,83.263687 100.268021,85.032204 100.268021,87.085922 
	C103.788414,86.912643 107.713112,87.666611 104.927505,81.447906 
z"/>
<path fill="#0B0B0B" opacity="1.000000" stroke="none" 
	d="
M348.018005,95.982796 
	C346.686768,94.321930 345.526550,92.998940 344.366333,91.675949 
	C343.992645,91.877434 343.618927,92.078926 343.245239,92.280418 
	C343.245239,95.353790 343.245239,98.427162 343.245239,101.751709 
	C341.113617,101.751709 339.391144,101.751709 337.428528,101.751709 
	C337.428528,93.198608 337.428528,84.794487 337.428528,75.930962 
	C340.258881,75.930962 342.880890,75.864624 345.498260,75.946808 
	C349.235107,76.064140 352.978607,76.424583 354.809357,80.395866 
	C356.319275,83.671219 354.993347,87.314415 351.144257,90.980820 
	C353.389587,94.369949 355.660645,97.797935 357.989410,101.313011 
	C352.302856,103.998604 350.330627,99.997826 348.018005,95.982796 
M347.096680,86.918594 
	C347.725372,85.465851 348.354095,84.013115 348.982819,82.560379 
	C347.198120,81.878563 345.413452,81.196747 343.628754,80.514931 
	C344.154083,83.385536 340.440979,87.647713 347.096680,86.918594 
z"/>
<path fill="#080808" opacity="1.000000" stroke="none" 
	d="
M85.586731,101.782097 
	C84.638832,99.887291 84.084587,98.165283 83.457001,96.215385 
	C80.500931,96.215385 77.570244,96.215385 74.469780,96.215385 
	C73.832695,98.035011 73.194511,99.857750 72.515732,101.796463 
	C70.504379,101.796463 68.579170,101.796463 66.235184,101.796463 
	C69.100212,93.671318 71.528847,85.725197 74.846123,78.169212 
	C75.612564,76.423447 79.419174,76.012390 82.103058,74.869499 
	C85.480637,84.455864 88.437134,92.847107 91.646088,101.954895 
	C89.410545,101.954895 87.695473,101.954895 85.586731,101.782097 
M80.256645,85.396484 
	C79.870178,84.405327 79.483711,83.414162 78.748055,81.527458 
	C77.654022,85.209297 76.852150,87.907906 75.936302,90.990074 
	C77.343605,90.990074 78.163261,91.028091 78.977837,90.980011 
	C79.899818,90.925575 80.817230,90.793907 81.888039,90.679680 
	C81.385948,88.943588 80.972916,87.515419 80.256645,85.396484 
z"/>
<path fill="#0B0B0B" opacity="1.000000" stroke="none" 
	d="
M63.918613,87.999924 
	C63.206570,89.279396 62.594990,90.669426 61.754749,90.825066 
	C59.825649,91.182419 57.785122,90.938232 55.295094,90.938232 
	C55.207497,92.810928 55.125824,94.556953 55.020294,96.813042 
	C58.077374,96.813042 60.978676,96.813042 64.167061,96.813042 
	C64.167061,98.718544 64.167061,100.127037 64.167061,101.778877 
	C59.320068,101.778877 54.561432,101.778877 49.494949,101.778877 
	C49.494949,93.331909 49.494949,84.931450 49.494949,76.224808 
	C54.278969,76.224808 59.036655,76.224808 64.127800,76.224808 
	C64.127800,77.495888 64.127800,78.888329 64.127800,80.661736 
	C61.297909,80.661736 58.534161,80.661736 55.433460,80.661736 
	C55.433460,82.554443 55.433460,84.075325 55.433460,85.123016 
	C58.409466,85.974525 61.162346,86.762192 63.918613,87.999924 
z"/>
<path fill="#0B0B0B" opacity="1.000000" stroke="none" 
	d="
M326.946838,80.851028 
	C322.394104,80.279846 322.864868,82.856644 323.352905,85.783264 
	C325.941925,85.783264 328.548706,85.783264 331.556030,85.783264 
	C331.721100,87.467552 331.856873,88.853241 332.047791,90.801468 
	C329.003448,90.801468 326.269806,90.801468 323.318481,90.801468 
	C323.318481,93.072418 323.318481,94.811249 323.318481,96.873032 
	C326.216949,96.873032 328.999786,96.873032 332.136810,96.873032 
	C332.261749,98.577484 332.365234,99.988922 332.492310,101.722610 
	C327.428833,101.722610 322.669922,101.722610 317.547485,101.722610 
	C317.547485,93.442421 317.547485,85.044090 317.547485,76.281967 
	C322.170807,76.281967 326.915009,76.281967 332.160828,76.281967 
	C332.249115,77.392204 332.358276,78.764526 332.505035,80.609932 
	C330.570770,80.701118 328.981567,80.776039 326.946838,80.851028 
z"/>
<path fill="#060606" opacity="1.000000" stroke="none" 
	d="
M252.951813,94.942154 
	C255.829727,96.210938 258.704987,97.011230 261.917999,97.905525 
	C261.917999,98.810432 261.917999,100.204918 261.917999,101.805298 
	C257.053528,101.805298 252.301086,101.805298 247.268707,101.805298 
	C247.268707,93.348778 247.268707,84.959457 247.268707,76.250229 
	C252.045853,76.250229 256.915009,76.250229 261.865997,76.250229 
	C261.865997,77.705055 261.865997,79.086899 261.865997,80.687889 
	C258.970795,80.687889 256.344727,80.687889 253.193405,80.687889 
	C253.095627,82.402618 253.008545,83.929497 252.898407,85.860794 
	C255.789703,85.860794 258.377716,85.860794 261.289307,85.860794 
	C261.289307,87.608070 261.289307,88.986084 261.289307,89.841324 
	C259.241150,93.337631 252.701920,87.069473 252.951813,94.942154 
z"/>
<path fill="#0A0A0A" opacity="1.000000" stroke="none" 
	d="
M229.363098,92.295288 
	C231.714279,99.597595 236.988388,96.712608 241.547928,96.371353 
	C242.962677,100.230156 241.387344,101.774551 237.552750,102.116219 
	C230.839569,102.714401 226.525482,100.978149 224.354614,96.479424 
	C221.723938,91.027893 222.682632,82.392929 226.696228,78.681198 
	C231.526321,74.214386 237.023712,75.253067 242.862411,77.357742 
	C242.253677,78.996071 241.710175,80.458824 241.180405,81.884605 
	C231.165726,79.364944 228.480194,81.708771 229.363098,92.295288 
z"/>
<path fill="#0F0F0F" opacity="1.000000" stroke="none" 
	d="
M306.671692,98.665039 
	C306.920441,103.763489 303.436523,101.436272 300.920105,102.210693 
	C300.920105,95.087761 300.920105,88.219231 300.920105,81.158630 
	C298.459015,81.012993 296.520386,80.898277 294.211823,80.761665 
	C294.211823,79.255219 294.211823,77.755196 294.211823,76.080482 
	C300.545837,76.080482 306.792664,76.080482 313.334106,76.080482 
	C313.334106,77.610863 313.334106,78.990135 313.334106,80.715271 
	C311.268066,80.829124 309.331818,80.935829 306.672241,81.082397 
	C306.672241,86.745689 306.672241,92.471413 306.671692,98.665039 
z"/>
<path fill="#040404" opacity="1.000000" stroke="none" 
	d="
M34.946060,94.821991 
	C36.205730,95.884232 37.417114,96.774132 38.731468,96.968788 
	C40.659092,97.254272 42.660385,97.042305 44.914494,97.042305 
	C44.914494,98.738144 44.914494,100.135765 44.914494,101.771088 
	C39.860977,101.771088 34.757877,101.771088 29.323956,101.771088 
	C29.323956,93.305183 29.323956,84.776741 29.323956,76.092201 
	C31.056658,76.092201 32.679710,76.092201 34.943813,76.092201 
	C34.943813,82.153595 34.943813,88.246201 34.946060,94.821991 
z"/>
<path fill="#0D0D0D" opacity="1.000000" stroke="none" 
	d="
M147.188828,99.645584 
	C147.185486,91.578125 147.185486,83.977768 147.185486,76.142754 
	C149.227432,76.038834 150.842514,75.956642 152.780960,75.857994 
	C152.780960,84.536201 152.780960,93.070145 152.780960,102.928253 
	C150.587372,101.823158 148.889771,100.967926 147.188828,99.645584 
z"/>
<path fill="#F7FCFF" opacity="1.000000" stroke="none" 
	d="
M355.700989,41.805908 
	C355.572571,43.556065 355.756531,45.006580 355.252472,46.155148 
	C354.164734,48.633739 352.394043,48.755611 350.683197,46.703266 
	C348.559357,44.155453 348.658295,37.114876 350.881805,34.393608 
	C351.424896,33.728916 352.666992,32.940914 353.237793,33.152710 
	C354.141266,33.487946 355.207794,34.527531 355.387909,35.431858 
	C355.770996,37.355534 355.628479,39.383911 355.700989,41.805908 
z"/>
<path fill="#FEF2F6" opacity="1.000000" stroke="none" 
	d="
M276.496613,42.479683 
	C276.755188,39.816730 276.808075,37.436058 277.586121,35.322304 
	C277.964508,34.294262 279.643280,33.356800 280.843658,33.194637 
	C281.386292,33.121323 282.672760,34.985928 282.793365,36.064007 
	C283.087067,38.689522 283.133698,41.398972 282.805176,44.015022 
	C282.630249,45.408054 281.469025,46.677231 280.752991,48.002312 
	C279.517090,46.938988 278.208923,45.945103 277.084290,44.774841 
	C276.688171,44.362652 276.741364,43.518654 276.496613,42.479683 
z"/>
<path fill="#F5F5F5" opacity="1.000000" stroke="none" 
	d="
M105.274216,81.713531 
	C107.713112,87.666611 103.788414,86.912643 100.268021,87.085922 
	C100.268021,85.032204 100.268021,83.263687 100.268021,80.865189 
	C101.887238,81.067688 103.407372,81.257797 105.274216,81.713531 
z"/>
<path fill="#F5F5F5" opacity="1.000000" stroke="none" 
	d="
M346.659576,86.989105 
	C340.440979,87.647713 344.154083,83.385536 343.628754,80.514931 
	C345.413452,81.196747 347.198120,81.878563 348.982819,82.560379 
	C348.354095,84.013115 347.725372,85.465851 346.659576,86.989105 
z"/>
<path fill="#E4E4E4" opacity="1.000000" stroke="none" 
	d="
M80.408264,85.741867 
	C80.972916,87.515419 81.385948,88.943588 81.888039,90.679680 
	C80.817230,90.793907 79.899818,90.925575 78.977837,90.980011 
	C78.163261,91.028091 77.343605,90.990074 75.936302,90.990074 
	C76.852150,87.907906 77.654022,85.209297 78.748055,81.527458 
	C79.483711,83.414162 79.870178,84.405327 80.408264,85.741867 
z"/>
</svg>